<svg width="242" height="34" viewBox="0 0 242 34" fill="none" xmlns="http://www.w3.org/2000/svg">
<g clip-path="url(#clip0_1_329)">
<path d="M144.492 34L150.903 0H141.783L138.246 20.2885L126.845 0.165918L126.753 0H119.29L113.353 34H122.492L125.458 17.01L134.978 34H144.492Z" fill="#E41523"/>
<path d="M97.4151 0C86.2178 0 78.3804 6.33145 76.4539 16.9436C75.5137 22.1335 76.3685 26.4474 78.9327 29.414C81.5233 32.4138 85.8168 34 91.3595 34C102.557 34 110.394 27.6619 112.321 17.0564C113.261 11.8665 112.406 7.55261 109.842 4.58598C107.251 1.58618 102.951 0 97.4151 0ZM85.5472 17.0564C86.5795 11.3754 90.3009 8.24283 96.0278 8.24283C98.809 8.24283 100.847 8.96623 102.077 10.3865C103.352 11.8665 103.74 14.0699 103.221 16.9436C102.182 22.6645 98.4539 25.8169 92.7271 25.8169C89.9985 25.8169 87.9865 25.0869 86.7373 23.6467C85.4486 22.1534 85.0409 19.877 85.5472 17.0564Z" fill="#E41523"/>
<path d="M53.0405 34H62.0351L65.8158 12.3576H56.8212L53.0405 34Z" fill="white"/>
<path d="M50.7325 0L49.2466 8.52157H74.7576L76.2436 0H50.7325Z" fill="white"/>
<path d="M31.1982 34H40.3178L46.255 0H37.1355L31.1982 34Z" fill="white"/>
<path d="M180.569 34H206.698L208.191 25.4585H191.05L194.009 8.52821H211.15L212.636 0H186.5L180.569 34Z" fill="white"/>
<path d="M200.42 11.9129C197.382 11.9129 194.903 13.9902 194.384 16.9635C194.134 18.4103 194.417 19.7244 195.199 20.6602C195.988 21.6092 197.25 22.1335 198.756 22.1335C201.767 22.1335 204.233 20.0562 204.753 17.0763C205.009 15.6229 204.72 14.3088 203.937 13.373C203.155 12.4306 201.906 11.9129 200.42 11.9129Z" fill="#E41523"/>
<path d="M218.796 34H227.791L231.558 12.3576H222.57L218.796 34Z" fill="white"/>
<path d="M216.489 0L215.003 8.52157H240.514L242 0H216.489Z" fill="white"/>
<path d="M4.16848 12.3576L1.979 23.7396L4.21451 12.3576H4.16848Z" fill="white"/>
<path d="M179.722 9.61662C180.208 6.83582 179.735 4.48642 178.354 2.82724C176.822 0.982223 174.218 0.00662231 170.819 0.00662231H156.019L154.335 8.56801H168.689C169.169 8.56801 169.813 8.65429 170.162 9.06577C170.398 9.35115 170.471 9.78917 170.372 10.3533C170.148 11.6143 169.267 12.3443 167.952 12.3443H153.593L151.357 23.7197L149.378 33.9801H165.908C172.772 33.9801 177.526 30.2569 178.61 24.025C179.196 20.6734 178.301 17.7864 176.165 16.0144C178.006 14.488 179.261 12.2249 179.715 9.59671L179.722 9.61662ZM169.609 23.2087C169.274 25.1399 167.584 25.432 166.611 25.432H159.326L160.246 20.8991H167.275C168.215 20.8991 168.919 21.1446 169.307 21.6092C169.629 22.0008 169.734 22.5383 169.616 23.2153L169.609 23.2087Z" fill="white"/>
<path d="M30.3437 9.62989C30.8302 6.8491 30.3568 4.49969 28.9761 2.84051C27.4441 0.995498 24.8338 0.0198975 21.4345 0.0198975H6.64076L4.95756 8.58129H19.3108C19.7908 8.58129 20.4351 8.66757 20.7836 9.07904C21.0203 9.36442 21.0926 9.80245 20.994 10.3666C20.7705 11.6276 19.8894 12.3576 18.5744 12.3576H4.21458L1.97908 23.733L0 33.9934H16.5296C23.3939 33.9934 28.1476 30.2701 29.2325 24.0383C29.8177 20.6867 28.9235 17.7997 26.7866 16.0277C28.6276 14.5013 29.8834 12.2381 30.3371 9.60998L30.3437 9.62989ZM20.2247 23.2219C19.8894 25.1532 18.1996 25.4452 17.2265 25.4452H9.94142L10.8619 20.9123H17.8906C18.8308 20.9123 19.5344 21.1579 19.9223 21.6225C20.2445 22.014 20.3497 22.5516 20.2313 23.2286L20.2247 23.2219Z" fill="white"/>
</g>
<defs>
<clipPath id="clip0_1_329">
<rect width="242" height="34" fill="white"/>
</clipPath>
</defs>
</svg>
